<?xml version="1.0" standalone="no"?>
<!DOCTYPE svg PUBLIC "-//W3C//DTD SVG 1.1//EN" "http://www.w3.org/Graphics/SVG/1.1/DTD/svg11.dtd" >
<svg xmlns="http://www.w3.org/2000/svg">
<metadata></metadata>
<defs>
<font id="koblenz_serialregular" horiz-adv-x="1247" >
<font-face units-per-em="2048" ascent="1638" descent="-410" />
<missing-glyph horiz-adv-x="593" />
<glyph horiz-adv-x="0" />
<glyph horiz-adv-x="0" />
<glyph horiz-adv-x="682" />
<glyph unicode="&#xd;" horiz-adv-x="593" />
<glyph unicode=" "  horiz-adv-x="593" />
<glyph unicode="&#x09;" horiz-adv-x="593" />
<glyph unicode="&#xa0;" horiz-adv-x="593" />
<glyph unicode="!" horiz-adv-x="430" d="M215 -31l-141 176l141 181l139 -181zM295 408l-168 -29v1085l192 23z" />
<glyph unicode="&#x22;" horiz-adv-x="823" d="M203 899h-166l192 576l207 22zM553 899h-166l191 576l208 22z" />
<glyph unicode="#" horiz-adv-x="1294" d="M332 459h-236l23 102h235l74 352h-235l20 103h238l90 430h102l-92 -430h215l90 430h100l-90 -430h236l-21 -103h-235l-76 -352h236l-21 -102h-235l-93 -430h-100l90 430h-213l-92 -430h-100zM530 913l-75 -352h215l73 352h-213z" />
<glyph unicode="$" horiz-adv-x="1091" d="M74 199l133 131q71 -91 142 -131.5t171 -46.5v510l-28 12q-18 7 -50.5 21t-45.5 19.5t-37 15.5t-34.5 15.5t-27.5 13.5t-26.5 14.5t-21 14t-20.5 15.5q-49 39 -75.5 111t-26.5 159q0 166 110 286.5t283 143.5v113h74v-109q111 -2 201.5 -39t212.5 -133l-117 -143 q-150 127 -299 127v-488l51 -18q29 -10 54 -19.5t42 -16.5t34 -15t25.5 -11.5t21.5 -11t16 -9.5t16 -10.5t16 -10.5q150 -93 150 -295q0 -186 -116.5 -307t-309.5 -136v-114h-72v110q-125 6 -228 60t-218 172zM594 635v-481l14 4q99 28 154 92.5t55 157.5q0 83 -48.5 132 t-174.5 95zM520 864v449q-65 -15 -112 -56q-35 -31 -59.5 -81t-24.5 -91q0 -79 43.5 -128t152.5 -93z" />
<glyph unicode="%" horiz-adv-x="1837" d="M74 1040q0 211 96 338t256 127t257 -126.5t97 -338.5t-95.5 -338.5t-256.5 -126.5t-257.5 126.5t-96.5 338.5zM596 -53l-113 43l750 1528l108 -43zM1057 436q0 210 95.5 337.5t252.5 127.5q163 0 260.5 -126.5t97.5 -338.5t-95.5 -338.5t-256.5 -126.5t-257.5 126.5 t-96.5 338.5zM428 1393q-95 0 -156 -99t-61 -254q0 -154 61 -254t156 -100q94 0 154.5 100t60.5 254t-60.5 253.5t-154.5 99.5zM1411 788q-95 0 -156 -98.5t-61 -253.5t61 -254.5t156 -99.5q94 0 154.5 99.5t60.5 254.5t-60.5 253.5t-154.5 98.5z" />
<glyph unicode="&#x26;" horiz-adv-x="1304" d="M1116 -37l-227 281l-133 -133q-75 -75 -143.5 -107.5t-153.5 -32.5q-158 0 -271.5 108.5t-113.5 260.5q0 82 38 165.5t105 147.5l182 172l-37 54q-46 68 -73 144t-27 136q0 143 98 239.5t244 96.5q132 0 217.5 -82t85.5 -207q0 -156 -145 -280l-137 -119l278 -334 l248 252l111 -113l-261 -256l252 -297zM657 238l129 120l-286 349l-125 -129q-69 -73 -81 -92q-11 -17 -20 -42q-18 -52 -18 -86q0 -89 63.5 -155t149.5 -66q51 0 87.5 20t100.5 81zM492 971l43 -53l114 112q96 96 96 172q0 63 -41.5 103.5t-105.5 40.5q-78 0 -124 -53.5 t-46 -143.5q0 -102 64 -178z" />
<glyph unicode="'" horiz-adv-x="475" d="M203 899h-166l192 576l207 22z" />
<glyph unicode="(" horiz-adv-x="671" d="M582 1681l73 -112q-74 -58 -110.5 -91t-77.5 -81q-89 -105 -141 -213q-45 -96 -73 -219t-28 -238q0 -119 27.5 -242.5t73.5 -218.5q47 -99 141 -211q43 -49 80 -83.5t108 -90.5l-73 -110q-92 65 -136.5 102t-89.5 90q-282 320 -282 764q0 278 123 524q66 128 159 236 q48 56 93.5 95t132.5 99z" />
<glyph unicode=")" horiz-adv-x="671" d="M88 -229l-72 110q115 90 187 174q91 105 143 211q46 93 72 217t26 244q0 118 -26 241t-72 216q-54 111 -143 213q-42 48 -78.5 81.5t-108.5 90.5l72 112q83 -58 128 -97.5t95 -96.5q287 -329 287 -760q0 -284 -125 -528q-55 -109 -162 -236q-47 -53 -91.5 -91.5 t-131.5 -100.5z" />
<glyph unicode="*" horiz-adv-x="829" d="M119 848l-82 96l256 152l-232 131l33 123l256 -154v272l123 31v-301l229 139l91 -90l-263 -147l238 -137l-41 -123l-252 149v-262l-125 -39v301z" />
<glyph unicode="+" d="M539 606h-398v174h398v400h170v-400h395v-174h-395v-395h-170v395z" />
<glyph unicode="," horiz-adv-x="407" d="M137 -250h-166l191 576l209 22z" />
<glyph unicode="-" horiz-adv-x="583" d="M547 537h-510v151h510v-151z" />
<glyph unicode="." horiz-adv-x="358" d="M180 -31l-143 176l143 181l139 -181z" />
<glyph unicode="/" horiz-adv-x="1054" d="M176 -211l-139 37l840 1921l137 -35z" />
<glyph unicode="0" d="M74 735q0 362 146 566t405 204q257 0 403 -204t146 -566q0 -363 -146 -567.5t-403 -204.5q-260 0 -405.5 204t-145.5 568zM625 1339q-98 0 -179 -79.5t-127.5 -219t-46.5 -307.5q0 -256 102 -430t251 -174q97 0 177.5 79t126.5 218t46 307t-46 307.5t-126.5 219 t-177.5 79.5z" />
<glyph unicode="1" d="M244 1040l-58 134l594 372v-1530l-178 -32v1265z" />
<glyph unicode="2" d="M1073 0h-956l581 621q76 79 154 190q38 56 55 103t17 102q0 131 -88.5 223t-214.5 92q-129 0 -221.5 -90t-92.5 -213q0 -109 80 -201q44 -49 85.5 -71t107.5 -31l-121 -145q-162 57 -250 172t-88 270q0 204 143.5 340.5t358.5 136.5q209 0 348 -134t139 -335 q0 -158 -102 -297q-54 -77 -185 -217l-336 -354h627z" />
<glyph unicode="3" d="M100 221l123 117q56 -94 147.5 -147.5t198.5 -53.5q136 0 228 79t92 200q0 123 -92 202.5t-234 79.5h-157v148h159q106 0 192.5 77t86.5 173q0 109 -73 175t-193 66q-213 0 -353 -180l-110 123q102 122 215.5 177.5t259.5 55.5q196 0 317 -108t121 -285q0 -120 -61 -207 t-166 -118q130 -46 201 -145t71 -234q0 -197 -136 -321t-351 -124q-74 0 -153 19.5t-140 52.5t-105.5 73t-87.5 105z" />
<glyph unicode="4" d="M709 381h-689l865 1175v-1013h254l-29 -162h-225v-365l-176 -34v399zM709 543v518l-387 -518h387z" />
<glyph unicode="5" d="M98 156l119 127q48 -56 78 -72q54 -35 125.5 -56.5t134.5 -21.5q149 0 244.5 91t95.5 231q0 150 -98 235.5t-267 85.5q-67 0 -127 -16q-84 -21 -178 -78v795h789l-49 -164h-562v-408q67 20 105.5 26.5t99.5 6.5q212 0 348 -133.5t136 -339.5q0 -224 -144.5 -362 t-378.5 -138q-156 0 -262 43t-209 148z" />
<glyph unicode="6" d="M739 1520l183 -88l-15 -13l-30 -24q-155 -122 -306 -285q-63 -70 -139 -178q66 37 119.5 52t120.5 15q97 0 185 -40t152 -108t102 -162t38 -197q0 -194 -129 -351q-145 -176 -393 -176q-148 0 -269.5 69t-190.5 190.5t-69 269.5q0 292 285 655q88 112 185.5 213 t170.5 158zM608 842q-123 0 -217 -94t-106 -228v-22q0 -156 96.5 -257.5t245.5 -101.5q138 0 236 102.5t98 247.5q0 150 -101.5 251.5t-251.5 101.5z" />
<glyph unicode="7" d="M891 1313h-785l37 164h998l-631 -1477h-225z" />
<glyph unicode="8" d="M385 762q-56 23 -84 42t-55 50q-86 103 -86 248q0 178 129 288.5t336 110.5q206 0 334 -110.5t128 -288.5q0 -139 -86 -248q-26 -31 -55 -50t-84 -42q75 -29 115 -62q66 -56 102.5 -135t36.5 -168q0 -192 -134 -308t-357 -116q-224 0 -359 116t-135 308q0 89 36.5 168 t102.5 135q38 31 115 62zM625 692q-132 0 -223 -82t-91 -202t88 -196.5t226 -76.5q137 0 224 76.5t87 196.5q0 119 -90.5 201.5t-220.5 82.5zM625 1348q-125 0 -209 -69.5t-84 -178.5v-10q0 -114 82.5 -186.5t210.5 -72.5q126 0 209.5 72t83.5 182q0 114 -83.5 188.5 t-209.5 74.5z" />
<glyph unicode="9" d="M508 -35l-182 86l12 12l33 25q61 45 123.5 103t92 88.5t89.5 95.5q77 86 139 176q-66 -37 -120 -51.5t-120 -14.5q-130 0 -239.5 67.5t-172.5 183.5t-63 253q0 200 125 352q146 179 396 179q225 0 376.5 -152.5t151.5 -378.5q0 -295 -285 -655q-93 -116 -189.5 -216 t-166.5 -153zM285 991q0 -14 4 -24q8 -140 107 -232t241 -92q132 0 228 102t96 242q0 155 -96 255.5t-244 100.5q-140 0 -238 -103t-98 -249z" />
<glyph unicode=":" horiz-adv-x="358" d="M180 -31l-143 176l143 181l139 -181zM180 733l-143 176l143 181l139 -181z" />
<glyph unicode=";" horiz-adv-x="421" d="M152 -250h-168l192 576l207 22zM227 733l-139 176l139 181l144 -181z" />
<glyph unicode="&#x3c;" horiz-adv-x="520" d="M348 121l-311 450l319 430l127 -90l-258 -342l248 -360z" />
<glyph unicode="=" d="M1108 481h-969v164h969v-164zM1108 737h-969v162h969v-162z" />
<glyph unicode="&#x3e;" horiz-adv-x="520" d="M164 121l-127 90l258 340l-248 362l125 88l311 -452z" />
<glyph unicode="?" horiz-adv-x="890" d="M166 1130l-150 82q55 139 167.5 218t252.5 79q177 0 294.5 -116t117.5 -293q0 -89 -33 -162q-40 -85 -90 -129q-10 -9 -104 -76q-65 -46 -83 -74.5t-18 -85.5v-137l-166 -28v174q0 43 11 96q10 46 26 72q21 35 45 51q3 3 64 41q81 47 126.5 115t45.5 139q0 104 -70 173.5 t-176 69.5q-95 0 -158.5 -51t-101.5 -158zM440 -31l-139 176l139 181l142 -181z" />
<glyph unicode="@" horiz-adv-x="1722" d="M930 471q-9 -33 -41 -74q-112 -130 -268 -61q-79 35 -122 128t-36 236q4 48 8 72q29 192 137 318q68 80 149 106.5t148 -0.5t103 -96q2 -3 5 -10.5t5 -10.5l18 117l101 -2l-78 -440l-29 -179q-11 -76 4 -126q11 -37 44.5 -54t70.5 -4q28 9 53 29t64 65q81 98 106 275 q22 152 -15.5 282t-119.5 215t-205 124t-264 18q-119 -17 -221.5 -82t-174 -162.5t-107 -228t-21.5 -271.5q7 -64 20 -114q40 -157 137 -271t222 -165t272 -38.5t283 95.5q45 26 100 74q67 57 111 116l41 -73q-32 -40 -52 -60q-236 -248 -544 -248q-156 -1 -293 61.5 t-234 170t-148 260.5t-40 325q15 234 145 412q94 128 226 206t278 95q168 19 313 -32.5t241 -153.5t139 -253t14 -323q-32 -190 -127.5 -307t-208.5 -133q-93 -13 -155 39.5t-54 132.5zM582 596q3 -75 26 -127q28 -62 94.5 -73t116.5 38q30 28 49.5 63.5t46.5 112.5 q21 64 37 154l4 20l15 86q10 62 2 121q-12 74 -69.5 108t-119.5 7q-54 -23 -91.5 -73t-71.5 -154q-21 -66 -27 -101q-16 -89 -12 -182z" />
<glyph unicode="A" horiz-adv-x="1404" d="M125 -33l-172 90l752 1497l747 -1497l-168 -90l-268 535h-625zM936 666l-231 489l-236 -489h467z" />
<glyph unicode="B" horiz-adv-x="1128" d="M598 0h-473v1477h453q204 0 323 -103.5t119 -283.5q0 -119 -56 -201t-163 -119q124 -43 190 -133.5t66 -220.5q0 -191 -124 -303.5t-335 -112.5zM504 678h-180v-502h245q126 0 200.5 68.5t74.5 183.5q0 82 -34.5 141t-96.5 82q-76 27 -209 27zM543 1300h-219v-446h170 q88 0 139.5 12t91.5 41q43 32 67.5 78.5t24.5 97.5q0 100 -74 158.5t-200 58.5z" />
<glyph unicode="C" horiz-adv-x="1241" d="M1208 1423l-98 -166q-54 29 -66 33q-83 27 -180 27q-118 0 -225 -46t-184.5 -124t-123.5 -185.5t-46 -226.5q0 -162 76.5 -294t210 -207.5t296.5 -75.5q146 0 277 84l76 -179q-72 -37 -131 -55q-107 -37 -224 -37q-224 0 -405.5 99.5t-284 275t-102.5 391.5 q0 158 61.5 300t165.5 244.5t248.5 163t304.5 60.5q136 0 248 -37q49 -16 106 -45z" />
<glyph unicode="D" horiz-adv-x="1329" d="M481 0h-356v1477h356q175 0 279 -29q154 -41 280 -164q215 -209 215 -549q0 -345 -215 -551q-107 -101 -232.5 -142.5t-326.5 -41.5zM485 1303h-161v-1115h168q279 0 407 131q71 71 114.5 184.5t43.5 231.5q0 190 -105 347.5t-262 201.5q-74 19 -205 19z" />
<glyph unicode="E" horiz-adv-x="1038" d="M987 0h-862v1477h811l29 -177h-641v-462h540v-179h-540v-483h692z" />
<glyph unicode="F" horiz-adv-x="831" d="M324 16l-199 -32v1493h700l29 -177h-530v-485h419v-178h-419v-621z" />
<glyph unicode="G" horiz-adv-x="1519" d="M1360 1327l-107 -156q-15 10 -35.5 24t-32.5 22t-20 12q-75 43 -164.5 67.5t-171.5 24.5q-144 0 -272 -79.5t-204.5 -214t-76.5 -286.5q0 -114 54 -237q75 -167 210.5 -255.5t317.5 -88.5q143 0 236 41q39 16 108 63v373h-452l32 178h619v-655q-67 -46 -109.5 -68.5 t-105.5 -48.5q-182 -72 -342 -72q-155 0 -297.5 61.5t-246 164t-165 244t-61.5 294.5q0 208 104 385t283 281t389 104q146 0 274 -47q66 -24 113.5 -50t122.5 -81z" />
<glyph unicode="H" horiz-adv-x="1425" d="M324 16l-199 -32v1478l199 29v-653h778v624l201 29v-1475l-201 -32v675l-778 -12v-631z" />
<glyph unicode="I" horiz-adv-x="446" d="M324 16l-199 -32v1478l199 29v-1475z" />
<glyph unicode="J" horiz-adv-x="798" d="M-16 55l79 164q97 -65 193 -65q62 0 112.5 27.5t73.5 74.5q14 29 23.5 85.5t9.5 107.5v69v944l201 29v-1022q0 -152 -21 -227q-34 -122 -138.5 -196.5t-240.5 -74.5q-81 0 -146.5 19t-145.5 65z" />
<glyph unicode="K" horiz-adv-x="1091" d="M324 16l-199 -32v1478l199 29v-670l571 688l147 -116l-505 -607l555 -696l-168 -119l-600 789v-744z" />
<glyph unicode="L" horiz-adv-x="913" d="M901 0h-776v1462l199 29v-1315h604z" />
<glyph unicode="M" horiz-adv-x="1742" d="M201 -33l-185 41l346 1546l510 -1165l508 1165l349 -1546l-189 -26l-219 954l-449 -1006l-452 1022z" />
<glyph unicode="N" horiz-adv-x="1480" d="M324 16l-199 -32v1572l1032 -1136v1042l201 29v-1563l-1034 1141v-1053z" />
<glyph unicode="O" horiz-adv-x="1689" d="M74 735q0 161 59 303t161.5 243t246 159.5t305.5 58.5t305.5 -58.5t245 -159.5t160.5 -243t59 -303q0 -162 -59 -304t-160.5 -243.5t-244.5 -160t-306 -58.5t-306 58.5t-245.5 160t-161.5 243.5t-59 304zM846 1319q-157 0 -289 -78t-208.5 -212.5t-76.5 -293.5 q0 -160 77 -296t209 -214.5t288 -77.5t287.5 80t207.5 214t76 294t-77 293.5t-208.5 212.5t-285.5 78z" />
<glyph unicode="P" horiz-adv-x="1003" d="M324 16l-199 -32v1493h235q255 0 398 -82q101 -60 162 -173t61 -241q0 -133 -66 -251.5t-174 -180.5q-126 -74 -331 -74h-86v-459zM379 1300h-55v-653h90q177 0 273.5 86t96.5 242q0 176 -141 266q-52 33 -109 46t-155 13z" />
<glyph unicode="Q" horiz-adv-x="1689" d="M1415 217l277 -260l-140 -131l-295 274q-33 -26 -67 -49q-60 -38 -149.5 -59t-188.5 -21q-166 0 -310.5 58t-247 158.5t-161.5 242.5t-59 305q0 161 59 303t161.5 243t246 159.5t305.5 58.5q163 0 305.5 -58t244 -159t160 -242.5t58.5 -302.5t-64 -317q-22 -54 -50 -96.5 t-85 -106.5zM985 354l139 131l144 -133q42 50 62 79.5t38 70.5q49 107 49 231q0 159 -76 294t-207.5 213.5t-287.5 78.5t-288 -78t-209 -212.5t-77 -293.5q0 -160 76 -293.5t207.5 -209.5t288.5 -76q81 0 141.5 16t128.5 57z" />
<glyph unicode="R" horiz-adv-x="1064" d="M324 0h-199v1477h291q117 0 178 -7t119 -30q126 -47 197 -156.5t71 -257.5q0 -183 -92 -294.5t-258 -131.5l422 -526l-160 -111l-569 727v-690zM438 1300h-114v-589h125q155 0 241 78.5t86 218.5q0 101 -51 174.5t-141 99.5q-63 18 -146 18z" />
<glyph unicode="S" horiz-adv-x="1040" d="M23 199l133 131q70 -92 149 -135t176 -43q126 0 203.5 70.5t77.5 187.5q0 78 -49 133q-26 30 -66 49q-65 30 -180 72l-64 22q-146 54 -223 117q-49 39 -76.5 111t-27.5 159q0 186 133 310t334 124q108 0 199 -38t212 -134l-114 -143q-82 68 -151.5 97.5t-145.5 29.5 q-117 0 -195 -68.5t-78 -169.5q0 -55 29 -102q18 -35 53 -55q23 -18 51 -31.5t127 -54.5l60 -25q134 -56 164 -69.5t63 -34.5q150 -93 150 -295q0 -199 -132 -322t-346 -123q-129 0 -237.5 53.5t-228.5 176.5z" />
<glyph unicode="T" horiz-adv-x="966" d="M381 1300h-397l32 177h965l-29 -177h-372v-1284l-199 -32v1316z" />
<glyph unicode="U" horiz-adv-x="1390" d="M1067 1462l199 29v-891q0 -164 -15 -236t-65 -155q-68 -113 -199.5 -177.5t-292.5 -64.5q-160 0 -290.5 64t-202.5 178q-47 77 -61.5 150.5t-14.5 240.5v862l199 29v-930q0 -107 12 -163.5t45 -108.5q43 -66 129.5 -106t183.5 -40q98 0 185 40t131 106q33 47 45 104.5 t12 167.5v901z" />
<glyph unicode="V" horiz-adv-x="1263" d="M631 -61l-678 1497l178 73l502 -1134l502 1134l176 -73z" />
<glyph unicode="W" horiz-adv-x="1904" d="M649 -72l-678 1497l181 86l499 -1126l195 455l-268 583l180 88l194 -452l195 452l180 -88l-268 -583l194 -455l500 1126l180 -86l-678 -1497l-303 701z" />
<glyph unicode="X" horiz-adv-x="1189" d="M147 -35l-163 117l485 704l-414 619l166 106l373 -573l371 573l170 -106l-418 -619l485 -704l-162 -117l-446 668z" />
<glyph unicode="Y" horiz-adv-x="1048" d="M438 535l-467 882l181 92l395 -782l379 782l170 -90l-725 -1450l-181 66z" />
<glyph unicode="Z" horiz-adv-x="1136" d="M1100 0h-1100l795 1300h-744l31 177h1038l-792 -1297l800 -4z" />
<glyph unicode="[" horiz-adv-x="485" d="M444 -225h-319v1902h319v-114h-143v-1674h143v-114z" />
<glyph unicode="\" horiz-adv-x="657" d="M354 0l-258 1475h156l260 -1475h-158z" />
<glyph unicode="]" horiz-adv-x="485" d="M360 -225h-323v114h147v1674h-147v114h323v-1902z" />
<glyph unicode="^" horiz-adv-x="651" d="M168 1155h-170l213 291h229l213 -293h-166l-161 229z" />
<glyph unicode="_" horiz-adv-x="1005" d="M834 -61h-738v61h738v-61z" />
<glyph unicode="`" horiz-adv-x="389" d="M176 1157l-231 299h217l172 -299h-158z" />
<glyph unicode="a" horiz-adv-x="1099" d="M799 616v89v4q0 81 -19 118q-56 113 -258 113q-85 0 -150.5 -13t-138.5 -46l-51 151q15 4 48 15.5t46 13.5q117 26 240 26q239 0 350 -86.5t111 -273.5v-80v-631l-178 -32v141q-121 -154 -310 -154q-177 0 -296 112.5t-119 278.5t114.5 274.5t292.5 108.5q93 0 178 -34 t140 -95zM514 600q-120 0 -195 -68t-75 -176q0 -106 78.5 -174.5t199.5 -68.5q123 0 199 67.5t76 175.5q0 107 -79.5 175.5t-203.5 68.5z" />
<glyph unicode="b" horiz-adv-x="1331" d="M301 1491v-623q85 116 174.5 164.5t216.5 48.5q119 0 224 -43t179.5 -116.5t118 -177t43.5 -220.5q0 -154 -73.5 -281t-203 -199.5t-286.5 -72.5q-255 0 -412 167t-157 437v887zM694 924q-160 0 -273.5 -117t-113.5 -283q0 -165 113.5 -280t273.5 -115q163 0 276 114.5 t113 280.5t-113.5 283t-275.5 117z" />
<glyph unicode="c" horiz-adv-x="1044" d="M1004 963l-132 -117q-62 46 -113 64t-124 18q-164 0 -274.5 -113t-110.5 -280q0 -175 109.5 -290.5t275.5 -115.5q77 0 147 27q53 21 111 77l121 -124q-38 -33 -82 -60q-58 -36 -137 -57t-160 -21q-118 0 -222 43t-178.5 117t-117.5 177.5t-43 219.5q0 155 74 283 t203.5 201t285.5 73q99 0 205 -32q62 -21 162 -90z" />
<glyph unicode="d" horiz-adv-x="1316" d="M1014 877v591l178 23l2 -1475l-178 -32v198q-81 -110 -174.5 -160.5t-212.5 -50.5q-153 0 -280.5 73t-201 200t-73.5 280q0 237 161.5 397t399.5 160q123 0 211 -47.5t168 -156.5zM635 924q-162 0 -274.5 -117t-112.5 -283t112 -280.5t275 -114.5q162 0 274.5 115 t112.5 280q0 166 -113 283t-274 117z" />
<glyph unicode="e" horiz-adv-x="1159" d="M1124 815l-817 -498q121 -190 324 -190q98 0 180.5 43t167.5 137l135 -98q-48 -58 -94 -96q-171 -142 -383 -142q-118 0 -222.5 42.5t-179 115.5t-118 176t-43.5 219q0 241 161 399t404 158q153 0 269 -64t216 -202zM254 461l610 381q-60 47 -113 66.5t-122 19.5 q-157 0 -270 -115.5t-113 -273.5q0 -29 8 -78z" />
<glyph unicode="f" horiz-adv-x="518" d="M143 907h-143l35 150h108v24q0 209 104.5 316.5t305.5 107.5q45 0 84 -4l-27 -158q-34 5 -59 5q-109 0 -169 -59t-60 -165v-43v-24h290l-26 -150h-264v-891l-179 -32v923z" />
<glyph unicode="g" horiz-adv-x="1032" d="M6 -211l131 117q135 -191 352 -191q136 0 222 76.5t86 198.5q0 126 -93.5 202t-248.5 76q-93 0 -246 -59l70 141q-106 41 -161 122.5t-55 195.5q0 175 126 291t315 116q80 0 170 -28l90 22l110 25q35 8 107 32l-25 -147q-31 4 -63 4q-40 0 -96 -10q16 -14 51 -53 q92 -112 92 -254q0 -108 -53 -190t-148 -120q112 -41 176 -137.5t64 -224.5q0 -187 -139.5 -309.5t-352.5 -122.5q-148 0 -254 50t-227 177zM502 938q-112 0 -185 -72.5t-73 -183.5q0 -109 75 -184.5t185 -75.5t185 76t75 186q0 109 -74 181.5t-188 72.5z" />
<glyph unicode="h" horiz-adv-x="1101" d="M301 16l-176 -32v1486l176 29v-594q21 33 47 62q108 120 285 120q143 0 234 -77.5t106 -212.5q6 -65 6 -179v-602l-178 -32v632v35v11q0 45 -2 65q-5 97 -59.5 149t-153.5 52q-119 0 -202 -85t-83 -208v-55v-564z" />
<glyph unicode="i" horiz-adv-x="432" d="M303 16l-176 -32v1056l176 29v-1053zM215 1239l-127 145l127 144l129 -144z" />
<glyph unicode="j" horiz-adv-x="438" d="M-170 -428l18 156q47 -7 58 -7q106 0 165.5 67t59.5 185v1067l176 29v-1141q0 -157 -108 -260.5t-275 -103.5q-37 0 -94 8zM221 1239l-127 145l127 144l129 -144z" />
<glyph unicode="k" horiz-adv-x="950" d="M301 16l-176 -32v1486l176 29v-952l449 549l143 -105l-367 -448l430 -463l-133 -115l-522 559v-508z" />
<glyph unicode="l" horiz-adv-x="425" d="M301 16l-176 -32v1486l176 29v-1483z" />
<glyph unicode="m" horiz-adv-x="1669" d="M301 0l-176 -16v1056l174 29v-178q48 98 111 141q34 25 87.5 40t106.5 15q223 0 291 -190q7 14 13.5 24t15 20.5t12.5 16.5q50 56 82 78q86 49 207 49q148 0 235.5 -94t87.5 -252v-4l-2 -123v-34v-562l-178 -32v620v31v4q0 133 -22 184q-19 43 -67.5 72t-104.5 29 q-117 0 -184.5 -87t-67.5 -235v-31v-555l-179 -32v616v33v82v12q0 93 -51 147t-141 54q-105 0 -177.5 -94t-72.5 -232v-33v-569z" />
<glyph unicode="n" horiz-adv-x="1097" d="M301 16l-176 -32v1056l176 29v-164q21 33 47 62q108 120 283 120q140 0 230.5 -77.5t105.5 -212.5q8 -86 8 -179v-602l-178 -32v632v35q0 98 -6 133q-14 65 -71 104.5t-136 39.5q-119 0 -201 -85t-82 -208v-55v-564z" />
<glyph unicode="o" horiz-adv-x="1267" d="M74 524q0 237 161.5 397t399.5 160q239 0 400 -159.5t161 -395.5t-161 -395.5t-400 -159.5q-156 0 -285 72.5t-202.5 199.5t-73.5 281zM635 924q-163 0 -275 -116.5t-112 -283.5q0 -166 112 -280.5t275 -114.5q162 0 274.5 115t112.5 282q0 166 -113 282t-274 116z" />
<glyph unicode="p" horiz-adv-x="1316" d="M301 -401l-176 -27v1468l176 33v-196q79 111 169.5 157.5t223.5 46.5q153 0 278.5 -73t197 -201t71.5 -283q0 -153 -71 -280t-195.5 -200t-274.5 -73q-128 0 -221 49.5t-178 161.5v-583zM682 924q-162 0 -274.5 -117t-112.5 -283t112 -280.5t275 -114.5q162 0 274.5 115 t112.5 280q0 166 -113 283t-274 117z" />
<glyph unicode="q" horiz-adv-x="1316" d="M1016 877v167l178 25v-1470l-178 -29v612q-85 -112 -178.5 -161.5t-219.5 -49.5q-151 0 -276 73t-196.5 200t-71.5 280q0 236 158 396.5t391 160.5q133 0 222.5 -46t170.5 -158zM635 924q-162 0 -274.5 -117t-112.5 -283t112 -280.5t275 -114.5q162 0 274.5 115 t112.5 280q0 166 -113 283t-274 117z" />
<glyph unicode="r" horiz-adv-x="681" d="M301 16l-176 -32v1056l176 29v-231q49 104 109 157q44 42 116.5 67t149.5 25q28 0 57 -4l-74 -180q-23 2 -43 2q-137 0 -226 -121.5t-89 -308.5v-459z" />
<glyph unicode="s" horiz-adv-x="856" d="M45 106l98 134q71 -58 131 -83.5t125 -25.5q95 0 152 45.5t57 122.5q0 54 -34 90t-113 64l-107 36q-24 8 -56 20t-42 15q-62 27 -96 58q-72 60 -72 186q0 141 99.5 229t256.5 88q102 0 183.5 -27.5t171.5 -92.5l-88 -127q-38 30 -82 51q-82 43 -168 43q-90 0 -144.5 -43 t-54.5 -113q0 -51 30.5 -77t133.5 -66l94 -37q92 -35 132.5 -57.5t68.5 -53.5q67 -73 67 -188q0 -140 -107.5 -233t-270.5 -93q-137 0 -267 68q-43 22 -98 67z" />
<glyph unicode="t" horiz-adv-x="542" d="M127 907h-143l32 150h111v243l176 29v-272h295l-29 -150h-266v-497q0 -94 6 -125q12 -67 61.5 -107.5t118.5 -40.5q41 0 91 19l22 -162q-118 -12 -158 -12q-80 0 -129.5 17.5t-93.5 61.5q-53 54 -73.5 123.5t-20.5 190.5v37v495z" />
<glyph unicode="u" horiz-adv-x="1097" d="M797 -12v164q-22 -35 -47 -62q-102 -119 -281 -119q-141 0 -231 78t-107 213q-6 62 -6 176v604l176 29v-629v-34q0 -101 6 -134q13 -66 70 -104.5t137 -38.5q121 0 202 83t81 206v55v567l178 29v-1055z" />
<glyph unicode="v" horiz-adv-x="987" d="M494 -70l-523 1088l160 76l363 -775l362 775l160 -76z" />
<glyph unicode="w" horiz-adv-x="1658" d="M444 -70l-467 1090l162 72l318 -744l372 744l373 -744l320 744l159 -72l-464 -1090l-388 785z" />
<glyph unicode="x" horiz-adv-x="870" d="M330 522l-314 467l150 96l270 -403l269 403l151 -96l-315 -467l309 -450l-152 -107l-264 397l-262 -397l-152 107z" />
<glyph unicode="y" horiz-adv-x="956" d="M406 135l-453 875l164 84l381 -758l346 760l160 -80l-666 -1456l-166 67z" />
<glyph unicode="z" horiz-adv-x="960" d="M932 0h-938l643 907h-555l12 150h864l-647 -910h650z" />
<glyph unicode="{" horiz-adv-x="700" d="M96 737q56 3 92.5 43.5t36.5 104.5v676q0 70 42.5 107.5t123.5 37.5h160v-92h-25q-71 0 -94.5 -24t-23.5 -95v-594q0 -63 -41.5 -110.5t-104.5 -53.5q63 -6 104.5 -53.5t41.5 -110.5v-593q0 -71 23.5 -95t94.5 -24h25v-92h-160q-81 0 -123.5 37.5t-42.5 107.5v676 q0 64 -36.5 104t-92.5 43z" />
<glyph unicode="|" horiz-adv-x="376" d="M252 0h-156v1475h156v-1475z" />
<glyph unicode="}" horiz-adv-x="700" d="M256 -231h-160v92h25q72 0 95.5 24t23.5 95v593q0 64 41.5 111t103.5 53q-62 6 -103.5 53t-41.5 111v594q0 71 -23.5 95t-95.5 24h-25v92h160q81 0 123.5 -37.5t42.5 -107.5v-676q0 -64 36.5 -104.5t92.5 -43.5q-56 -3 -92.5 -43t-36.5 -104v-676q0 -70 -42.5 -107.5 t-123.5 -37.5z" />
<glyph unicode="~" horiz-adv-x="780" d="M125 1569l-127 80q113 133 254 133q72 0 123 -19l18 -10l60 -24q26 -13 55 -13q89 0 158 66l116 -82q-57 -54 -71 -64q-43 -37 -72 -47q-57 -22 -125 -22q-48 0 -94 22q-15 6 -17 10l-67 27l-14 6q-29 13 -56 13q-71 0 -141 -76z" />
<glyph unicode="&#xa1;" horiz-adv-x="430" d="M215 1151l-141 180l141 176l139 -176zM303 12l-192 -24l22 1079l170 31v-1086z" />
<glyph unicode="&#xa2;" horiz-adv-x="1081" d="M567 1077l-2 135h80v-127h10q22 0 72 -4q79 -10 139 -34q40 -15 73 -36t87 -67l-135 -119q-55 52 -105 78q-67 33 -147 33v-817h16h23q67 9 131 39q58 36 100 84l123 -121q-73 -61 -137 -92q-123 -60 -238 -60h-22v-112h-78v114q-224 38 -353.5 186t-129.5 365 q0 122 43 227t125 181q65 62 131.5 92t193.5 55zM565 127v803q-57 -11 -86 -27q-97 -43 -154 -145t-57 -234q0 -155 81 -263.5t216 -133.5z" />
<glyph unicode="&#xa3;" horiz-adv-x="1196" d="M547 0h-510l33 168h168v512h-160l28 162h132v166q0 149 24 237q34 115 140 184.5t249 69.5q185 0 303 -127q53 -59 74 -117q16 -42 16 -129l-170 -34q0 111 -61.5 176t-167.5 65q-71 0 -128 -36.5t-79 -94.5q-12 -34 -12 -133v-227h313l-28 -160h-285v-512h131h74 q71 0 102 4q113 12 180 100q33 42 47 97t17 157l174 -30q-8 -91 -25 -162q-26 -121 -95.5 -200.5t-174.5 -108.5q-96 -27 -229 -27h-80z" />
<glyph unicode="&#xa4;" horiz-adv-x="1013" d="M96 436l127 125q-58 79 -58.5 178.5t56.5 178.5l-123 118q23 34 64 72l127 -127q79 60 179 60.5t179 -58.5l125 127q35 -28 55 -53q1 -1 7 -8.5t8 -12.5l-127 -118q58 -80 57.5 -179.5t-59.5 -179.5l127 -127l-15 -16l-16 -15q-21 -21 -39 -34l-123 127 q-79 -60 -178.5 -60t-177.5 60l-129 -125q-37 27 -66 67zM264 737q0 -84 60 -143t145 -59q84 0 143 59q60 60 60 143.5t-60 143.5q-59 59 -143 59q-85 0 -145 -59t-60 -144z" />
<glyph unicode="&#xa5;" horiz-adv-x="1202" d="M432 680l-395 737l180 92l395 -782l381 782l170 -90l-366 -747h329v-105h-378l-39 -69h413v-113h-471l-213 -416l-182 66l180 354h-370v111h426l16 35l-21 34h-417v111h362z" />
<glyph unicode="&#xa7;" horiz-adv-x="1230" d="M307 961q-100 84 -100 210q0 145 123 237.5t315 92.5q103 0 192.5 -30.5t143.5 -84.5q64 -67 109 -215l-164 -43q-20 125 -87 184.5t-190 59.5q-113 0 -185.5 -53.5t-72.5 -136.5q0 -69 47 -119q22 -25 101 -64l411 -196q100 -47 154.5 -128t54.5 -181q0 -98 -51.5 -176 t-163.5 -148q51 -46 72.5 -96.5t21.5 -122.5q0 -148 -122 -245t-308 -97q-358 0 -463 325l164 39q32 -122 103.5 -179.5t191.5 -57.5q117 0 185.5 55t68.5 148q0 55 -31 108q-18 29 -38.5 47t-63.5 39l-440 211q-98 46 -138 86q-77 71 -77 195q0 210 237 336zM862 668 l-442 206q-90 -47 -131 -100.5t-41 -124.5q0 -62 29 -102t96 -72l446 -211q166 81 166 221q0 125 -123 183z" />
<glyph unicode="&#xa8;" horiz-adv-x="632" d="M121 1153l-123 145l123 142l125 -142zM512 1153l-125 145l125 142l123 -142z" />
<glyph unicode="&#xa9;" horiz-adv-x="1908" d="M119 739q0 152 58 293t165 248q147 146 343.5 198t393.5 0t344 -198q110 -110 167.5 -253t57.5 -287.5t-57.5 -287.5t-167.5 -253t-253 -167.5t-287.5 -57.5t-287.5 57.5t-253 167.5q-107 107 -165 247.5t-58 292.5zM221 739q0 -133 51.5 -257t145.5 -220 q126 -127 296 -172t340 0t296 172q128 130 173 303t-0.5 346t-172.5 303q-127 128 -297 173.5t-339.5 0t-295.5 -173.5q-94 -96 -145.5 -219t-51.5 -256zM1239 1114l-61 -90q-82 73 -181 90q-121 24 -227.5 -21.5t-169.5 -144.5t-61 -225q0 -39 6 -76q19 -95 80 -167.5 t141.5 -107t177 -29t180.5 57.5q31 21 50 37l63 -88q-132 -111 -317 -117q-105 -3 -198.5 33t-159 100.5t-107 152.5t-42 188.5t35.5 207.5q62 167 215 254.5t337 55.5q130 -21 238 -111z" />
<glyph unicode="&#xaa;" horiz-adv-x="987" d="M117 571v125h700v-125h-700zM674 1350l6 -15v140h135l2 -678h-137v149l-6 -16q-36 -96 -146 -133.5t-229 10.5q-77 31 -128.5 96.5t-68.5 157.5q-18 97 8.5 185.5t82 147.5t133.5 86.5t159 10.5q117 -26 179 -125zM236 1139q0 -26 6 -47q18 -99 94 -152q59 -40 126 -39 t124 41q74 54 92 148q9 49 0 98q-24 122 -127 170q-89 42 -178 2q-52 -23 -86.5 -69.5t-46.5 -108.5q-4 -28 -4 -43z" />
<glyph unicode="&#xab;" horiz-adv-x="856" d="M684 121l-309 450l317 430l125 -90l-254 -342l248 -360zM348 121l-311 450l319 430l127 -90l-258 -342l248 -360z" />
<glyph unicode="&#xac;" horiz-adv-x="1284" d="M963 737h-867v156h996v-451h-129v295z" />
<glyph unicode="&#xad;" horiz-adv-x="583" d="M547 537h-510v151h510v-151z" />
<glyph unicode="&#xae;" horiz-adv-x="1908" d="M119 739q0 152 58 293t165 248q147 146 343.5 198t393.5 0t344 -198q110 -110 167.5 -253t57.5 -287.5t-57.5 -287.5t-167.5 -253t-253 -167.5t-287.5 -57.5t-287.5 57.5t-253 167.5q-107 107 -165 247.5t-58 292.5zM221 739q0 -133 51.5 -257t145.5 -220 q126 -127 296 -172t340 0t296 172q128 130 173 303t-0.5 346t-172.5 303q-127 128 -297 173.5t-339.5 0t-295.5 -173.5q-94 -96 -145.5 -219t-51.5 -256zM766 268h-123v961h225q81 0 128.5 -13t86.5 -45q68 -56 86 -147q23 -126 -36.5 -212t-176.5 -101q-5 0 -16 -1t-16 -1 l301 -441h-146l-313 473v-473zM766 1126v-344h80q99 0 151 44t54 126t-48 128t-145 46h-92z" />
<glyph unicode="&#xaf;" horiz-adv-x="565" d="M567 1190h-569v127h569v-127z" />
<glyph unicode="&#xb1;" horiz-adv-x="1216" d="M90 178h946v-139h-946v139zM494 928h139v-250h403v-139h-403v-250h-139v250h-404v139h404v250z" />
<glyph unicode="&#xb4;" horiz-adv-x="405" d="M225 1155h-151l168 299h215z" />
<glyph unicode="&#xb5;" horiz-adv-x="1275" d="M152 920h188v-607q0 -143 29 -194q27 -49 102 -49q117 -3 195 163q77 168 77 420v267h189v-672q0 -92 18 -135q18 -40 60 -43q41 0 65 43q23 44 23 125v28h43q0 -10 2 -18v-27q0 -114 -49 -178q-46 -61 -136 -61q-98 -3 -155 88q-50 81 -53 264q-47 -182 -125 -266 q-77 -83 -199 -86q-91 0 -150 53q-56 51 -81 158q0 -4 -1 -23.5t-1 -34.5q-3 -129 65 -289q66 -160 66 -188q0 -41 -23 -64q-22 -22 -63 -22q-47 -3 -68 35q-17 28 -20 108q0 5 0.5 19.5t1.5 43t2 56.5q4 132 4 182q0 117 -2 207q-4 180 -4 195v502z" />
<glyph unicode="&#xb6;" horiz-adv-x="1318" d="M492 1475h632v-107h-632q-120 0 -205 -87t-82 -210q1 -121 85 -205t202 -84h141v496h112v-1278h-112v676h-141q-163 0 -279.5 117t-116.5 282t116.5 282.5t279.5 117.5zM993 0h-112v1278h112v-1278z" />
<glyph unicode="&#xb7;" horiz-adv-x="358" d="M180 403l-143 179l143 178l139 -178z" />
<glyph unicode="&#xb8;" horiz-adv-x="292" d="M172 -508l-94 49l98 140q0 1 1 3.5t4.5 9.5t6.5 17q13 33 13 51q0 43 -72 95l115 98q92 -86 92 -172q0 -44 -39 -117q-2 -6 -5 -11.5t-6 -9.5t-3 -5z" />
<glyph unicode="&#xba;" horiz-adv-x="987" d="M807 571h-698v125h698v-125zM96 1141q0 23 8 73q17 84 66.5 150t117 101t149 41.5t163.5 -29.5q118 -48 177.5 -162.5t33.5 -247.5q-22 -109 -98 -186t-183 -99q-74 -15 -145 0q-108 22 -184.5 99t-98.5 186q-6 37 -6 74zM233 1141q0 -22 3 -43q21 -125 129 -174 q101 -47 197.5 5.5t115.5 166.5q12 74 -13 138t-79 103q-50 36 -107.5 42.5t-113.5 -19.5q-107 -49 -129 -174q-3 -21 -3 -45z" />
<glyph unicode="&#xbb;" horiz-adv-x="856" d="M164 121l-127 90l258 340l-248 362l125 88l311 -452zM500 121l-125 90l256 340l-248 362l127 88l307 -452z" />
<glyph unicode="&#xbf;" horiz-adv-x="890" d="M449 1155l-140 178l140 178l143 -178zM371 907v135l166 29v-172q0 -59 -11 -96q-9 -41 -28 -72q-14 -33 -43 -51q-27 -18 -64 -41q-82 -47 -127 -114.5t-45 -141.5q0 -103 70.5 -173.5t173.5 -70.5q97 0 160.5 50.5t101.5 160.5l152 -82q-58 -141 -169.5 -219t-252.5 -78 q-177 0 -293.5 116.5t-116.5 293.5q0 84 31 160q27 65 60.5 100.5t131.5 103.5q69 50 86 76.5t17 85.5z" />
<glyph unicode="&#xc0;" horiz-adv-x="1404" d="M125 -33l-172 90l752 1497l747 -1497l-168 -90l-268 535h-625zM936 666l-231 489l-236 -489h467zM629 1651l-232 299h217l172 -299h-157z" />
<glyph unicode="&#xc1;" horiz-adv-x="1404" d="M125 -33l-172 90l752 1497l747 -1497l-168 -90l-268 535h-625zM936 666l-231 489l-236 -489h467zM784 1649h-151l168 299h215z" />
<glyph unicode="&#xc2;" horiz-adv-x="1404" d="M125 -33l-172 90l752 1497l747 -1497l-168 -90l-268 535h-625zM936 666l-231 489l-236 -489h467zM557 1649h-170l213 290h229l213 -292h-165l-162 229z" />
<glyph unicode="&#xc3;" horiz-adv-x="1404" d="M125 -33l-172 90l752 1497l747 -1497l-168 -90l-268 535h-625zM936 666l-231 489l-236 -489h467zM487 1653l-112 71q100 123 225 123q46 0 109 -20l18 -6l51 -23q24 -12 51 -12q76 0 140 61l100 -75q-62 -68 -114.5 -94.5t-123.5 -26.5q-36 0 -81 18q-12 5 -15 8l-61 25 l-12 8q-27 10 -50 10q-29 0 -63 -18t-62 -49z" />
<glyph unicode="&#xc4;" horiz-adv-x="1404" d="M520 1550l-125 144l125 141l123 -141zM909 1550l-125 144l125 141l123 -141zM125 -33l-172 90l752 1497l747 -1497l-168 -90l-268 535h-625zM936 666l-231 489l-236 -489h467z" />
<glyph unicode="&#xc5;" horiz-adv-x="1404" d="M125 -33l-172 90l752 1497l747 -1497l-168 -90l-268 535h-625zM936 666l-231 489l-236 -489h467zM518 1759q0 77 55.5 133t133.5 56t133 -56t55 -133t-55 -131.5t-133 -54.5t-133.5 54.5t-55.5 131.5zM707 1843q-35 0 -59.5 -25t-24.5 -59t24.5 -58t59.5 -24t59.5 24 t24.5 58t-24.5 59t-59.5 25z" />
<glyph unicode="&#xc6;" horiz-adv-x="1921" d="M115 -31l-162 97l965 1411h892l29 -177h-629v-477h533v-168h-533v-483h691l-33 -172h-856v623h-461zM1012 791v524l-350 -524h350z" />
<glyph unicode="&#xc7;" horiz-adv-x="1249" d="M1208 1423l-98 -166q-54 29 -66 33q-83 27 -180 27q-118 0 -225 -46t-184.5 -124t-123.5 -185.5t-46 -226.5q0 -162 76.5 -294t210 -207.5t296.5 -75.5q146 0 277 84l76 -179q-72 -37 -131 -55q-107 -37 -224 -37q-224 0 -405.5 99.5t-284 275t-102.5 391.5 q0 158 61.5 300t165.5 244.5t248.5 163t304.5 60.5q136 0 248 -37q49 -16 106 -45zM797 -508l-95 49l99 140q0 2 12 30q12 30 12 51q0 41 -71 95l114 98q93 -87 93 -172q0 -50 -39 -117q-3 -6 -6.5 -12t-5.5 -9t-3 -5z" />
<glyph unicode="&#xc8;" horiz-adv-x="1038" d="M987 0h-862v1477h811l29 -177h-641v-462h540v-179h-540v-483h692zM479 1651l-231 299h217l172 -299h-158z" />
<glyph unicode="&#xc9;" horiz-adv-x="1038" d="M987 0h-862v1477h811l29 -177h-641v-462h540v-179h-540v-483h692zM606 1649h-151l168 299h215z" />
<glyph unicode="&#xca;" horiz-adv-x="1038" d="M987 0h-862v1477h811l29 -177h-641v-462h540v-179h-540v-483h692zM385 1649h-170l213 290h229l213 -292h-165l-162 229z" />
<glyph unicode="&#xcb;" horiz-adv-x="1038" d="M987 0h-862v1477h811l29 -177h-641v-462h540v-179h-540v-483h692zM362 1647l-122 145l122 141l125 -141zM754 1647l-125 145l125 141l123 -141z" />
<glyph unicode="&#xcc;" horiz-adv-x="446" d="M324 16l-199 -32v1478l199 29v-1475zM143 1651l-231 299h217l172 -299h-158z" />
<glyph unicode="&#xcd;" horiz-adv-x="446" d="M324 16l-199 -32v1478l199 29v-1475zM315 1649h-151l168 299h215z" />
<glyph unicode="&#xce;" horiz-adv-x="446" d="M324 16l-199 -32v1478l199 29v-1475zM74 1649h-170l213 290h229l213 -292h-166l-162 229z" />
<glyph unicode="&#xcf;" horiz-adv-x="446" d="M324 16l-199 -32v1478l199 29v-1475zM35 1647l-123 145l123 141l125 -141zM426 1647l-125 145l125 141l123 -141z" />
<glyph unicode="&#xd1;" horiz-adv-x="1480" d="M324 16l-199 -32v1572l1032 -1136v1042l201 29v-1563l-1034 1141v-1053zM532 1653l-112 71q100 123 225 123q47 0 109 -20l18 -6l51 -23q24 -12 51 -12q76 0 140 61l100 -75q-63 -69 -114.5 -95t-122.5 -26q-37 0 -82 18q-12 5 -15 8l-61 25l-12 8q-27 10 -50 10 q-29 0 -63 -18t-62 -49z" />
<glyph unicode="&#xd2;" horiz-adv-x="1689" d="M74 735q0 161 59 303t161.5 243t246 159.5t305.5 58.5t305.5 -58.5t245 -159.5t160.5 -243t59 -303q0 -162 -59 -304t-160.5 -243.5t-244.5 -160t-306 -58.5t-306 58.5t-245.5 160t-161.5 243.5t-59 304zM846 1319q-157 0 -289 -78t-208.5 -212.5t-76.5 -293.5 q0 -160 77 -296t209 -214.5t288 -77.5t287.5 80t207.5 214t76 294t-77 293.5t-208.5 212.5t-285.5 78zM766 1651l-231 299h217l172 -299h-158z" />
<glyph unicode="&#xd3;" horiz-adv-x="1689" d="M74 735q0 161 59 303t161.5 243t246 159.5t305.5 58.5t305.5 -58.5t245 -159.5t160.5 -243t59 -303q0 -162 -59 -304t-160.5 -243.5t-244.5 -160t-306 -58.5t-306 58.5t-245.5 160t-161.5 243.5t-59 304zM846 1319q-157 0 -289 -78t-208.5 -212.5t-76.5 -293.5 q0 -160 77 -296t209 -214.5t288 -77.5t287.5 80t207.5 214t76 294t-77 293.5t-208.5 212.5t-285.5 78zM940 1649h-152l168 299h215z" />
<glyph unicode="&#xd4;" horiz-adv-x="1689" d="M74 735q0 161 59 303t161.5 243t246 159.5t305.5 58.5t305.5 -58.5t245 -159.5t160.5 -243t59 -303q0 -162 -59 -304t-160.5 -243.5t-244.5 -160t-306 -58.5t-306 58.5t-245.5 160t-161.5 243.5t-59 304zM846 1319q-157 0 -289 -78t-208.5 -212.5t-76.5 -293.5 q0 -160 77 -296t209 -214.5t288 -77.5t287.5 80t207.5 214t76 294t-77 293.5t-208.5 212.5t-285.5 78zM698 1649h-170l213 290h230l213 -292h-166l-162 229z" />
<glyph unicode="&#xd5;" horiz-adv-x="1689" d="M74 735q0 161 59 303t161.5 243t246 159.5t305.5 58.5t305.5 -58.5t245 -159.5t160.5 -243t59 -303q0 -162 -59 -304t-160.5 -243.5t-244.5 -160t-306 -58.5t-306 58.5t-245.5 160t-161.5 243.5t-59 304zM846 1319q-157 0 -289 -78t-208.5 -212.5t-76.5 -293.5 q0 -160 77 -296t209 -214.5t288 -77.5t287.5 80t207.5 214t76 294t-77 293.5t-208.5 212.5t-285.5 78zM649 1653l-112 71q100 123 225 123q46 0 108 -20l19 -6l51 -23q24 -12 51 -12q75 0 139 61l101 -75q-62 -68 -114.5 -94.5t-123.5 -26.5q-37 0 -82 18q-10 4 -14 8 l-61 25l-13 8q-27 10 -49 10q-29 0 -63 -18t-62 -49z" />
<glyph unicode="&#xd6;" horiz-adv-x="1689" d="M74 735q0 161 59 303t161.5 243t246 159.5t305.5 58.5t305.5 -58.5t245 -159.5t160.5 -243t59 -303q0 -162 -59 -304t-160.5 -243.5t-244.5 -160t-306 -58.5t-306 58.5t-245.5 160t-161.5 243.5t-59 304zM846 1319q-157 0 -289 -78t-208.5 -212.5t-76.5 -293.5 q0 -160 77 -296t209 -214.5t288 -77.5t287.5 80t207.5 214t76 294t-77 293.5t-208.5 212.5t-285.5 78zM662 1550l-123 146l123 141l124 -141zM1053 1550l-125 146l125 141l123 -141z" />
<glyph unicode="&#xd7;" d="M500 692l-281 281l121 123l283 -281l282 283l123 -119l-285 -287l279 -278l-121 -121l-280 278l-281 -278l-121 119z" />
<glyph unicode="&#xd8;" horiz-adv-x="1691" d="M1350 1317l147 149h119l-201 -209q201 -210 201 -522q0 -215 -100.5 -390.5t-276.5 -275.5t-391 -100q-290 0 -500 168l-135 -137h-127l197 203q-209 221 -209 532q0 161 59 303t161.5 243t246 159.5t305.5 58.5q296 0 504 -182zM1278 1118l-793 -833q159 -138 359 -138 q157 0 289 78.5t208 213.5t76 296q0 104 -32.5 193.5t-106.5 189.5zM418 348l801 836q-174 133 -371 133q-157 0 -288.5 -76.5t-207.5 -209t-76 -290.5q0 -116 33 -207.5t109 -185.5z" />
<glyph unicode="&#xd9;" horiz-adv-x="1390" d="M1067 1462l199 29v-891q0 -164 -15 -236t-65 -155q-68 -113 -199.5 -177.5t-292.5 -64.5q-160 0 -290.5 64t-202.5 178q-47 77 -61.5 150.5t-14.5 240.5v862l199 29v-930q0 -107 12 -163.5t45 -108.5q43 -66 129.5 -106t183.5 -40q98 0 185 40t131 106q33 47 45 104.5 t12 167.5v901zM657 1651l-231 299h217l172 -299h-158z" />
<glyph unicode="&#xda;" horiz-adv-x="1390" d="M1067 1462l199 29v-891q0 -164 -15 -236t-65 -155q-68 -113 -199.5 -177.5t-292.5 -64.5q-160 0 -290.5 64t-202.5 178q-47 77 -61.5 150.5t-14.5 240.5v862l199 29v-930q0 -107 12 -163.5t45 -108.5q43 -66 129.5 -106t183.5 -40q98 0 185 40t131 106q33 47 45 104.5 t12 167.5v901zM799 1649h-152l168 299h215z" />
<glyph unicode="&#xdb;" horiz-adv-x="1390" d="M1067 1462l199 29v-891q0 -164 -15 -236t-65 -155q-68 -113 -199.5 -177.5t-292.5 -64.5q-160 0 -290.5 64t-202.5 178q-47 77 -61.5 150.5t-14.5 240.5v862l199 29v-930q0 -107 12 -163.5t45 -108.5q43 -66 129.5 -106t183.5 -40q98 0 185 40t131 106q33 47 45 104.5 t12 167.5v901zM575 1649h-169l212 290h230l213 -292h-166l-162 229z" />
<glyph unicode="&#xdc;" horiz-adv-x="1390" d="M1067 1462l199 29v-891q0 -164 -15 -236t-65 -155q-68 -113 -199.5 -177.5t-292.5 -64.5q-160 0 -290.5 64t-202.5 178q-47 77 -61.5 150.5t-14.5 240.5v862l199 29v-930q0 -107 12 -163.5t45 -108.5q43 -66 129.5 -106t183.5 -40q98 0 185 40t131 106q33 47 45 104.5 t12 167.5v901zM528 1550l-122 146l122 141l125 -141zM920 1550l-125 146l125 141l122 -141z" />
<glyph unicode="&#xdf;" horiz-adv-x="1286" d="M272 741h-147l29 158h122v145q0 218 114 349t304 131q175 0 291.5 -113.5t116.5 -282.5q0 -110 -49 -195.5t-131 -115.5q137 -34 216 -135t79 -246q0 -196 -126.5 -328.5t-314.5 -132.5q-150 0 -262 91q-33 28 -72 94v-148l-170 -28v757zM455 1044v-661l47 14 q9 -65 28 -106.5t56 -75.5q35 -33 86.5 -53.5t97.5 -20.5q113 0 186.5 81.5t73.5 205.5q0 182 -160 254q-99 47 -213 47h-47v145q20 -2 43 -2q120 0 196.5 69.5t76.5 178.5q0 99 -66.5 164.5t-165.5 65.5q-115 0 -177 -79t-62 -227z" />
<glyph unicode="&#xe0;" horiz-adv-x="1099" d="M799 616v89v4q0 81 -19 118q-56 113 -258 113q-85 0 -150.5 -13t-138.5 -46l-51 151q15 4 48 15.5t46 13.5q117 26 240 26q239 0 350 -86.5t111 -273.5v-80v-631l-178 -32v141q-121 -154 -310 -154q-177 0 -296 112.5t-119 278.5t114.5 274.5t292.5 108.5q93 0 178 -34 t140 -95zM514 600q-120 0 -195 -68t-75 -176q0 -106 78.5 -174.5t199.5 -68.5q123 0 199 67.5t76 175.5q0 107 -79.5 175.5t-203.5 68.5zM512 1157l-231 299h217l172 -299h-158z" />
<glyph unicode="&#xe1;" horiz-adv-x="1099" d="M799 616v89v4q0 81 -19 118q-56 113 -258 113q-85 0 -150.5 -13t-138.5 -46l-51 151q15 4 48 15.5t46 13.5q117 26 240 26q239 0 350 -86.5t111 -273.5v-80v-631l-178 -32v141q-121 -154 -310 -154q-177 0 -296 112.5t-119 278.5t114.5 274.5t292.5 108.5q93 0 178 -34 t140 -95zM514 600q-120 0 -195 -68t-75 -176q0 -106 78.5 -174.5t199.5 -68.5q123 0 199 67.5t76 175.5q0 107 -79.5 175.5t-203.5 68.5zM612 1155h-151l168 299h215z" />
<glyph unicode="&#xe2;" horiz-adv-x="1099" d="M799 616v89v4q0 81 -19 118q-56 113 -258 113q-85 0 -150.5 -13t-138.5 -46l-51 151q15 4 48 15.5t46 13.5q117 26 240 26q239 0 350 -86.5t111 -273.5v-80v-631l-178 -32v141q-121 -154 -310 -154q-177 0 -296 112.5t-119 278.5t114.5 274.5t292.5 108.5q93 0 178 -34 t140 -95zM514 600q-120 0 -195 -68t-75 -176q0 -106 78.5 -174.5t199.5 -68.5q123 0 199 67.5t76 175.5q0 107 -79.5 175.5t-203.5 68.5zM430 1155h-170l213 291h229l213 -293h-165l-162 229z" />
<glyph unicode="&#xe3;" horiz-adv-x="1099" d="M799 616v89v4q0 81 -19 118q-56 113 -258 113q-85 0 -150.5 -13t-138.5 -46l-51 151q15 4 48 15.5t46 13.5q117 26 240 26q239 0 350 -86.5t111 -273.5v-80v-631l-178 -32v141q-121 -154 -310 -154q-177 0 -296 112.5t-119 278.5t114.5 274.5t292.5 108.5q93 0 178 -34 t140 -95zM514 600q-120 0 -195 -68t-75 -176q0 -106 78.5 -174.5t199.5 -68.5q123 0 199 67.5t76 175.5q0 107 -79.5 175.5t-203.5 68.5zM352 1159l-112 72q100 123 225 123q42 0 108 -21l19 -6l51 -22q26 -13 51 -13q75 0 140 62l100 -76q-62 -68 -114.5 -94.5 t-123.5 -26.5q-34 0 -82 19q-10 4 -14 8l-61 24l-13 9q-27 10 -49 10q-29 0 -63 -18.5t-62 -49.5z" />
<glyph unicode="&#xe4;" horiz-adv-x="1099" d="M799 616v89v4q0 81 -19 118q-56 113 -258 113q-85 0 -150.5 -13t-138.5 -46l-51 151q15 4 48 15.5t46 13.5q117 26 240 26q239 0 350 -86.5t111 -273.5v-80v-631l-178 -32v141q-121 -154 -310 -154q-177 0 -296 112.5t-119 278.5t114.5 274.5t292.5 108.5q93 0 178 -34 t140 -95zM514 600q-120 0 -195 -68t-75 -176q0 -106 78.5 -174.5t199.5 -68.5q123 0 199 67.5t76 175.5q0 107 -79.5 175.5t-203.5 68.5zM371 1153l-123 145l123 142l125 -142zM762 1153l-125 145l125 142l123 -142z" />
<glyph unicode="&#xe5;" horiz-adv-x="1099" d="M799 616v89v4q0 81 -19 118q-56 113 -258 113q-85 0 -150.5 -13t-138.5 -46l-51 151q15 4 48 15.5t46 13.5q117 26 240 26q239 0 350 -86.5t111 -273.5v-80v-631l-178 -32v141q-121 -154 -310 -154q-177 0 -296 112.5t-119 278.5t114.5 274.5t292.5 108.5q93 0 178 -34 t140 -95zM514 600q-120 0 -195 -68t-75 -176q0 -106 78.5 -174.5t199.5 -68.5q123 0 199 67.5t76 175.5q0 107 -79.5 175.5t-203.5 68.5zM391 1329q0 77 55.5 133t133.5 56t133 -56t55 -133t-55 -131.5t-133 -54.5t-133.5 54.5t-55.5 131.5zM580 1413q-35 0 -59.5 -25 t-24.5 -59t24.5 -58t59.5 -24t59.5 24t24.5 58t-24.5 59t-59.5 25z" />
<glyph unicode="&#xe6;" horiz-adv-x="1822" d="M756 590v129q0 101 -64.5 156t-181.5 55q-130 0 -313 -64l-25 164q222 60 358 60q154 0 239 -49.5t122 -161.5q91 111 187.5 159.5t221.5 48.5q307 0 465 -268l-780 -481q46 -69 90 -105q109 -90 258 -90q93 0 174 34.5t176 111.5l101 -123q-144 -108 -245.5 -150.5 t-223.5 -42.5q-105 0 -188 30t-160 97q-55 47 -113 125q-107 -250 -387 -250q-170 0 -281.5 107t-111.5 270q0 169 106 274t277 105q194 0 299 -141zM487 598q-97 0 -173 -72t-76 -164q0 -95 73 -164t176 -69q114 0 188.5 65t74.5 166q0 98 -77.5 168t-185.5 70zM934 471 l577 365q-108 92 -223 92q-148 0 -254 -113.5t-106 -271.5q0 -25 6 -72z" />
<glyph unicode="&#xe7;" horiz-adv-x="1060" d="M1026 944l-135 -119q-11 11 -27.5 25.5t-21.5 19.5q-39 30 -96 48t-113 18q-161 0 -264 -115t-103 -295q0 -184 102 -296.5t269 -112.5q92 0 172 41q42 20 100 84l123 -121q-53 -42 -67 -49q-67 -49 -155 -76t-177 -27q-155 0 -283.5 73t-202 200t-73.5 280 q0 246 160.5 404.5t412.5 158.5q116 0 219 -38q38 -13 69.5 -34t90.5 -69zM557 -516l-98 49l98 141q5 2 14 31q13 44 13 53q0 23 -16.5 44.5t-57.5 52.5l119 100q92 -89 92 -178q0 -42 -37 -117q-7 -18 -16 -27z" />
<glyph unicode="&#xe8;" horiz-adv-x="1159" d="M1124 815l-817 -498q121 -190 324 -190q98 0 180.5 43t167.5 137l135 -98q-48 -58 -94 -96q-171 -142 -383 -142q-118 0 -222.5 42.5t-179 115.5t-118 176t-43.5 219q0 241 161 399t404 158q153 0 269 -64t216 -202zM254 461l610 381q-60 47 -113 66.5t-122 19.5 q-157 0 -270 -115.5t-113 -273.5q0 -29 8 -78zM567 1157l-231 299h217l172 -299h-158z" />
<glyph unicode="&#xe9;" horiz-adv-x="1159" d="M1124 815l-817 -498q121 -190 324 -190q98 0 180.5 43t167.5 137l135 -98q-48 -58 -94 -96q-171 -142 -383 -142q-118 0 -222.5 42.5t-179 115.5t-118 176t-43.5 219q0 241 161 399t404 158q153 0 269 -64t216 -202zM254 461l610 381q-60 47 -113 66.5t-122 19.5 q-157 0 -270 -115.5t-113 -273.5q0 -29 8 -78zM719 1155h-152l168 299h215z" />
<glyph unicode="&#xea;" horiz-adv-x="1159" d="M1124 815l-817 -498q121 -190 324 -190q98 0 180.5 43t167.5 137l135 -98q-48 -58 -94 -96q-171 -142 -383 -142q-118 0 -222.5 42.5t-179 115.5t-118 176t-43.5 219q0 241 161 399t404 158q153 0 269 -64t216 -202zM254 461l610 381q-60 47 -113 66.5t-122 19.5 q-157 0 -270 -115.5t-113 -273.5q0 -29 8 -78zM479 1155h-170l213 291h230l213 -293h-166l-162 229z" />
<glyph unicode="&#xeb;" horiz-adv-x="1159" d="M1124 815l-817 -498q121 -190 324 -190q98 0 180.5 43t167.5 137l135 -98q-48 -58 -94 -96q-171 -142 -383 -142q-118 0 -222.5 42.5t-179 115.5t-118 176t-43.5 219q0 241 161 399t404 158q153 0 269 -64t216 -202zM254 461l610 381q-60 47 -113 66.5t-122 19.5 q-157 0 -270 -115.5t-113 -273.5q0 -29 8 -78zM436 1153l-123 145l123 142l125 -142zM827 1153l-125 145l125 142l123 -142z" />
<glyph unicode="&#xec;" horiz-adv-x="425" d="M301 16l-176 -32v1056l176 29v-1053zM135 1157l-231 299h217l172 -299h-158z" />
<glyph unicode="&#xed;" horiz-adv-x="425" d="M301 16l-176 -32v1056l176 29v-1053zM295 1155h-152l168 299h215z" />
<glyph unicode="&#xee;" horiz-adv-x="425" d="M301 16l-176 -32v1056l176 29v-1053zM63 1155h-169l212 291h230l213 -293h-166l-162 229z" />
<glyph unicode="&#xef;" horiz-adv-x="425" d="M301 16l-176 -32v1056l176 29v-1053zM31 1153l-123 145l123 142l125 -142zM422 1153l-125 145l125 142l123 -142z" />
<glyph unicode="&#xf1;" horiz-adv-x="1097" d="M301 16l-176 -32v1056l176 29v-164q21 33 47 62q108 120 283 120q140 0 230.5 -77.5t105.5 -212.5q8 -86 8 -179v-602l-178 -32v632v35q0 98 -6 133q-14 65 -71 104.5t-136 39.5q-119 0 -201 -85t-82 -208v-55v-564zM344 1159l-113 72q100 123 226 123q42 0 108 -21 l19 -6l51 -22q26 -13 51 -13q74 0 139 62l101 -76q-62 -68 -114.5 -94.5t-123.5 -26.5q-34 0 -82 19q-10 4 -14 8l-62 24l-12 9q-27 10 -49 10q-29 0 -63 -18.5t-62 -49.5z" />
<glyph unicode="&#xf2;" horiz-adv-x="1267" d="M74 524q0 237 161.5 397t399.5 160q239 0 400 -159.5t161 -395.5t-161 -395.5t-400 -159.5q-156 0 -285 72.5t-202.5 199.5t-73.5 281zM635 924q-163 0 -275 -116.5t-112 -283.5q0 -166 112 -280.5t275 -114.5q162 0 274.5 115t112.5 282q0 166 -113 282t-274 116z M567 1157l-231 299h217l172 -299h-158z" />
<glyph unicode="&#xf3;" horiz-adv-x="1267" d="M74 524q0 237 161.5 397t399.5 160q239 0 400 -159.5t161 -395.5t-161 -395.5t-400 -159.5q-156 0 -285 72.5t-202.5 199.5t-73.5 281zM635 924q-163 0 -275 -116.5t-112 -283.5q0 -166 112 -280.5t275 -114.5q162 0 274.5 115t112.5 282q0 166 -113 282t-274 116z M709 1155h-152l168 299h215z" />
<glyph unicode="&#xf4;" horiz-adv-x="1267" d="M74 524q0 237 161.5 397t399.5 160q239 0 400 -159.5t161 -395.5t-161 -395.5t-400 -159.5q-156 0 -285 72.5t-202.5 199.5t-73.5 281zM635 924q-163 0 -275 -116.5t-112 -283.5q0 -166 112 -280.5t275 -114.5q162 0 274.5 115t112.5 282q0 166 -113 282t-274 116z M485 1155h-170l213 291h230l213 -293h-166l-162 229z" />
<glyph unicode="&#xf5;" horiz-adv-x="1267" d="M74 524q0 237 161.5 397t399.5 160q239 0 400 -159.5t161 -395.5t-161 -395.5t-400 -159.5q-156 0 -285 72.5t-202.5 199.5t-73.5 281zM635 924q-163 0 -275 -116.5t-112 -283.5q0 -166 112 -280.5t275 -114.5q162 0 274.5 115t112.5 282q0 166 -113 282t-274 116z M418 1159l-113 72q100 123 225 123q43 0 109 -21l18 -6l52 -22q26 -13 51 -13q74 0 139 62l100 -76q-63 -69 -114.5 -95t-122.5 -26q-34 0 -82 19q-10 4 -14 8l-62 24l-12 9q-27 10 -49 10q-29 0 -63 -18.5t-62 -49.5z" />
<glyph unicode="&#xf6;" horiz-adv-x="1267" d="M74 524q0 237 161.5 397t399.5 160q239 0 400 -159.5t161 -395.5t-161 -395.5t-400 -159.5q-156 0 -285 72.5t-202.5 199.5t-73.5 281zM635 924q-163 0 -275 -116.5t-112 -283.5q0 -166 112 -280.5t275 -114.5q162 0 274.5 115t112.5 282q0 166 -113 282t-274 116z M453 1153l-123 145l123 142l125 -142zM844 1153l-125 145l125 142l123 -142z" />
<glyph unicode="&#xf7;" horiz-adv-x="1216" d="M479 289q38 35 84 35q49 0 82 -33t33 -84q0 -50 -35 -82q-30 -35 -80 -35q-49 0 -84 35q-33 38 -33 82q0 49 33 82zM88 553h948v-139h-948v139zM479 840q34 31 84 34q50 0 80 -34q35 -35 35 -82q0 -50 -35 -82q-30 -35 -80 -35q-49 0 -84 35q-33 33 -33 82t33 82z" />
<glyph unicode="&#xf8;" horiz-adv-x="1257" d="M985 967l98 106h103l-146 -162q43 -49 60 -75q42 -61 67 -145t25 -165q0 -237 -161.5 -396t-403.5 -159q-116 0 -209 37q-50 20 -135 78l-103 -113h-102l143 160q-48 55 -61 80q-43 62 -68.5 146t-25.5 167q0 155 73.5 283t202.5 201t285 73q101 0 213 -39 q59 -21 145 -77zM913 786l-514 -571q58 -45 109 -63.5t121 -18.5q160 0 271.5 114t111.5 277q0 77 -22.5 136.5t-76.5 125.5zM340 270l526 572q-120 76 -235 76q-161 0 -270 -114t-109 -280q0 -128 88 -254z" />
<glyph unicode="&#xf9;" horiz-adv-x="1097" d="M797 -12v164q-22 -35 -47 -62q-102 -119 -281 -119q-141 0 -231 78t-107 213q-6 62 -6 176v604l176 29v-629v-34q0 -101 6 -134q13 -66 70 -104.5t137 -38.5q121 0 202 83t81 206v55v567l178 29v-1055zM512 1157l-231 299h217l172 -299h-158z" />
<glyph unicode="&#xfa;" horiz-adv-x="1097" d="M797 -12v164q-22 -35 -47 -62q-102 -119 -281 -119q-141 0 -231 78t-107 213q-6 62 -6 176v604l176 29v-629v-34q0 -101 6 -134q13 -66 70 -104.5t137 -38.5q121 0 202 83t81 206v55v567l178 29v-1055zM637 1155h-152l168 299h215z" />
<glyph unicode="&#xfb;" horiz-adv-x="1097" d="M797 -12v164q-22 -35 -47 -62q-102 -119 -281 -119q-141 0 -231 78t-107 213q-6 62 -6 176v604l176 29v-629v-34q0 -101 6 -134q13 -66 70 -104.5t137 -38.5q121 0 202 83t81 206v55v567l178 29v-1055zM416 1155h-170l213 291h229l213 -293h-166l-162 229z" />
<glyph unicode="&#xfc;" horiz-adv-x="1097" d="M797 -12v164q-22 -35 -47 -62q-102 -119 -281 -119q-141 0 -231 78t-107 213q-6 62 -6 176v604l176 29v-629v-34q0 -101 6 -134q13 -66 70 -104.5t137 -38.5q121 0 202 83t81 206v55v567l178 29v-1055zM373 1153l-123 145l123 142l125 -142zM764 1153l-125 145l125 142 l123 -142z" />
<glyph unicode="&#xff;" horiz-adv-x="956" d="M406 135l-453 875l164 84l381 -758l346 760l160 -80l-666 -1456l-166 67zM303 1153l-123 145l123 142l125 -142zM694 1153l-125 145l125 142l123 -142z" />
<glyph unicode="&#x152;" horiz-adv-x="2310" d="M1430 1225v252h790l31 -174h-647v-472h536v-163h-536v-486h684l-29 -182h-838v279q-129 -154 -271 -225.5t-319 -71.5q-155 0 -295 60.5t-241.5 162.5t-161 243t-59.5 297q0 157 60.5 298.5t163 243.5t245.5 162t301 60q188 0 326.5 -67t259.5 -217zM852 1323 q-120 0 -227 -45t-183.5 -122t-121 -185t-44.5 -230q0 -116 45 -221.5t120.5 -181.5t181 -121t221.5 -45q157 0 289 77.5t208 211.5t76 293q0 155 -75.5 286t-205.5 207t-284 76z" />
<glyph unicode="&#x153;" horiz-adv-x="2056" d="M1098 819q92 138 200.5 200t257.5 62q198 0 353 -127q34 -29 55.5 -55.5t56.5 -81.5l-784 -473q75 -113 152 -158t194 -45q87 0 163 29.5t169 99.5l104 -118q-69 -54 -114 -80q-178 -101 -340 -101q-113 0 -230 54q-96 44 -151 96q-39 34 -88 127q-87 -137 -196 -200.5 t-261 -63.5q-243 0 -404 155.5t-161 388.5q0 152 75.5 281t204.5 203.5t281 74.5q220 0 375 -149q40 -40 88 -119zM631 922q-161 0 -269 -112.5t-108 -279.5q0 -159 109 -271t264 -112q153 0 263.5 112.5t110.5 268.5q0 166 -107 280t-263 114zM1190 471l582 356 q-55 52 -105 74q-65 21 -117 21q-160 0 -263 -111.5t-103 -286.5q0 -16 6 -53z" />
<glyph unicode="&#x178;" horiz-adv-x="1048" d="M438 535l-467 882l181 92l395 -782l379 782l170 -90l-725 -1450l-181 66zM352 1647l-123 145l123 141l125 -141zM743 1647l-125 145l125 141l123 -141z" />
<glyph unicode="&#x2c6;" horiz-adv-x="651" d="M168 1155h-170l213 291h229l213 -293h-166l-161 229z" />
<glyph unicode="&#x2dc;" horiz-adv-x="690" d="M111 1159l-113 72q100 123 225 123q43 0 109 -21l18 -6l51 -22q26 -13 52 -13q74 0 139 62l100 -76q-63 -69 -114.5 -95t-122.5 -26q-35 0 -82 19q-12 5 -15 8l-61 24l-12 9q-27 10 -49 10q-29 0 -63 -18.5t-62 -49.5z" />
<glyph unicode="&#x2000;" horiz-adv-x="975" />
<glyph unicode="&#x2001;" horiz-adv-x="1950" />
<glyph unicode="&#x2002;" horiz-adv-x="975" />
<glyph unicode="&#x2003;" horiz-adv-x="1950" />
<glyph unicode="&#x2004;" horiz-adv-x="650" />
<glyph unicode="&#x2005;" horiz-adv-x="487" />
<glyph unicode="&#x2006;" horiz-adv-x="325" />
<glyph unicode="&#x2007;" horiz-adv-x="325" />
<glyph unicode="&#x2008;" horiz-adv-x="243" />
<glyph unicode="&#x2009;" horiz-adv-x="390" />
<glyph unicode="&#x200a;" horiz-adv-x="108" />
<glyph unicode="&#x2010;" horiz-adv-x="583" d="M547 537h-510v151h510v-151z" />
<glyph unicode="&#x2011;" horiz-adv-x="583" d="M547 537h-510v151h510v-151z" />
<glyph unicode="&#x2012;" horiz-adv-x="583" d="M547 537h-510v151h510v-151z" />
<glyph unicode="&#x2013;" d="M1108 608h-967v166h967v-166z" />
<glyph unicode="&#x2014;" horiz-adv-x="2039" d="M1978 678h-1917v151h1917v-151z" />
<glyph unicode="&#x2018;" horiz-adv-x="475" d="M246 901l-209 -22l233 598h166z" />
<glyph unicode="&#x2019;" horiz-adv-x="475" d="M203 899h-166l192 576l207 22z" />
<glyph unicode="&#x201a;" horiz-adv-x="407" d="M137 -250h-166l191 576l209 22z" />
<glyph unicode="&#x201c;" horiz-adv-x="823" d="M596 901l-209 -22l234 598h165zM246 901l-209 -22l233 598h166z" />
<glyph unicode="&#x201d;" horiz-adv-x="823" d="M203 899h-166l192 576l207 22zM553 899h-166l191 576l208 22z" />
<glyph unicode="&#x201e;" horiz-adv-x="786" d="M166 -250h-166l190 576l209 22zM516 -250h-166l191 576l207 22z" />
<glyph unicode="&#x2022;" horiz-adv-x="358" d="M180 403l-143 179l143 178l139 -178z" />
<glyph unicode="&#x2026;" horiz-adv-x="2039" d="M213 109q0 54 37.5 91.5t91.5 37.5t91.5 -37.5t37.5 -91.5t-37.5 -91.5t-91.5 -37.5t-91.5 37.5t-37.5 91.5zM895 109q0 54 37.5 91.5t91.5 37.5t91.5 -37.5t37.5 -91.5t-37.5 -91.5t-91.5 -37.5t-91.5 37.5t-37.5 91.5zM1577 109q0 54 37.5 91.5t91.5 37.5t91.5 -37.5 t37.5 -91.5t-37.5 -91.5t-91.5 -37.5t-91.5 37.5t-37.5 91.5z" />
<glyph unicode="&#x202f;" horiz-adv-x="390" />
<glyph unicode="&#x2039;" horiz-adv-x="520" d="M348 121l-311 450l319 430l127 -90l-258 -342l248 -360z" />
<glyph unicode="&#x203a;" horiz-adv-x="520" d="M164 121l-127 90l258 340l-248 362l125 88l311 -452z" />
<glyph unicode="&#x205f;" horiz-adv-x="487" />
<glyph unicode="&#x20ac;" horiz-adv-x="1615" d="M1040 -31q-274 0 -477 153.5t-268 403.5h-221l69 162h125v47v53h-194l69 162h152q68 246 271 397.5t474 151.5q290 0 502 -174l-84 -195q-79 89 -188 139t-230 50q-182 0 -326 -102t-208 -267h878l-69 -162h-846q-2 -18 -2 -53v-47h805l-68 -162h-700q61 -170 207.5 -275 t328.5 -104q123 1 233 52.5t189 140.5v-254q-191 -117 -422 -117z" />
<glyph unicode="&#x2122;" horiz-adv-x="1613" d="M260 1372h-164v103h445v-103h-166v-635h-115v635zM631 737h-115l141 756h62l205 -467q29 -67 32 -129q3 57 33 129l205 467h61l142 -756h-115l-74 430l-4 23l-2 18q-3 39 2 72q-1 -2 -20 -72l-10 -26l-3 -11l-194 -450h-41l-195 450l-4 15l-8 24q-18 62 -20 70 q5 -33 2 -72l-2 -18l-4 -23z" />
<glyph unicode="&#x25fc;" horiz-adv-x="1085" d="M0 1085h1085v-1085h-1085v1085z" />
</font>
</defs>
</svg>
