<svg xmlns="http://www.w3.org/2000/svg" viewBox="-292 54 374 454"><style>.st0{opacity:.6;stroke:#fff;stroke-width:5;stroke-miterlimit:10;enable-background:new}.st1{fill:#fff}.st2{fill:none}.st3{fill:#e0e0e0}</style><path class="st0" d="M-280.8 382.4l-1.1-278 10.5-8.9 2.3-1.4c11.2-6.7 22.7-12.4 34.7-17.1 11.9-4.8 24.2-8.6 37.1-11.6 14.3-3.3 29-5.6 43.8-7s29.6-2 44.1-2c14.6 0 29.3.6 44.1 2s29.4 3.7 43.7 7c12.9 3 25.2 6.8 37.1 11.6 12 4.8 23.4 10.4 34.7 17.1l2.3 1.4 11.6 8.9-2.1 277v2.3l-11.3 8.8L-106.6 503l-2.8 2.1-145.4-105.3-9.2-6.7-16.8-10.7z"/><path class="st1" d="M-185 374.3v-36.1h5.7v31.4h13.7v4.6H-185v.1zm23.3 0v-36.1h5.7v36.1h-5.7zm16.1 0h-5.7v-36.1h5.1l9 25.4 9-25.4h5.1v36.1h-5.7V357l-6.2 17.3h-4.3l-6.2-17.3-.1 17.3zm28.7 0v-36.1h5.7v36.1h-5.7zm35.6-31.4H-91v31.4h-5.7v-31.4h-9.8v-4.6h25.3v4.6h-.1zm8.4 0V354h12.8v4.6h-12.8v11.1h12.8v4.6h-18.5v-36.1h18.5v4.6l-12.8.1zm25.7 31.4h-8.9v-36.1h8.9c3.9 0 6.7.9 8.7 2.9 1.8 1.7 2.7 4.2 2.7 7.5v15.2c0 3.3-.9 5.8-2.7 7.5-1.9 2.1-4.8 3-8.7 3zm-3.1-4.5h3.2c.7 0 1.5-.1 2.1-.2.7-.1 1.3-.3 1.7-.8.5-.4.9-.9 1.2-1.8.3-.8.5-1.9.5-3.2v-15.2c0-1.4-.2-2.4-.5-3.2-.3-.8-.8-1.4-1.2-1.8-.5-.4-1.1-.6-1.7-.8-.6-.2-1.4-.2-2.1-.2h-3.2v27.2z"/><circle class="st1" cx="-40.1" cy="342.5" r="1.5"/><path class="st1" d="M-215.7 229.5v61.2c0 6.9-1.5 12.2-4.5 16-1.1 1.5-2.8 2.9-5.1 4.3-2.3 1.3-5.3 2-9.1 2s-6.8-.7-9.1-2-4-2.7-5.1-4.3c-3-3.7-4.5-9-4.5-16v-61.2h4v61.2c0 6 1.3 10.4 3.7 13.4 2.5 3.2 6.1 4.7 11 4.7s8.6-1.6 11-4.7c2.5-3 3.7-7.5 3.7-13.4v-61.2h4zm-26.7 0v61.2c0 2.9.3 5.1.9 6.7s1.3 2.7 2.1 3.5c.8.7 1.7 1.1 2.6 1.3.9.1 1.7.2 2.5.2s1.6-.1 2.5-.2c.9-.1 1.8-.5 2.6-1.3.8-.7 1.5-1.9 2.1-3.5.5-1.6.9-3.8.9-6.7v-61.2h3.9v61.2c0 5.3-1 9.3-3.1 11.8-1.9 2.4-4.9 3.6-8.9 3.6s-7-1.2-8.9-3.6c-2.1-2.6-3.1-6.5-3.1-11.8v-61.2h3.9zm39.8 83.4h-4.7l19.7-41.7-19.4-41.7h4.4l19.6 41.7-19.6 41.7zm21.2-38.5l18.2 38.6h-4.7l-13.7-29.2-13.7 29.2h-4.3l18.2-38.6zm0-6.4l-18.1-38.5h4.5l13.4 29.2 13.8-29.2h4.5l-18.1 38.5zm25.6-38.5l-19.8 41.7 19.6 41.7h-4.2l-19.8-41.7 19.7-41.7h4.5zm40.7 28.9v-5.3c0-6.4-1.3-11.2-4-14.6s-6.7-5-12-5-9.3 1.7-11.9 5c-2.7 3.3-3.9 8.2-3.9 14.6v36c0 6.5 1.3 11.4 3.9 14.7 2.7 3.4 6.7 5.1 11.9 5.1s9.3-1.7 12-5.1c2.7-3.3 4-8.3 4-14.7v-13h-19.7v-4h23.6v17c0 7.5-1.6 13.2-4.9 17.2-1.2 1.5-3 3-5.4 4.4-2.4 1.5-5.6 2.1-9.7 2.1s-7.3-.7-9.7-2.1c-2.3-1.5-4.1-2.9-5.3-4.4-3.3-4-4.9-9.7-4.9-17.2v-36c0-7.4 1.6-13.1 4.9-17.1 3.4-4.4 8.4-6.6 14.9-6.6 6.7 0 11.6 2.2 15 6.6 3.3 4 4.9 9.7 4.9 17.1v5.3h-3.7zm-6.8 0v-5.3c0-3-.3-5.4-.8-7.1-.5-1.7-1.2-3-2.1-3.9-.9-.9-1.9-1.4-2.9-1.7-1.1-.2-2.2-.3-3.3-.3s-2.3.1-3.3.3c-1.1.2-2.1.8-2.9 1.7-.9.9-1.6 2.1-2.1 3.9-.5 1.7-.8 4.1-.8 7.1v36c0 3.3.3 5.9.9 7.7.7 1.8 1.5 3.1 2.5 3.9s2 1.3 3 1.4 1.9.2 2.8.2c.8 0 1.8-.1 2.8-.2 1.1-.1 2.1-.6 3-1.4s1.7-2.1 2.4-3.9.9-4.3.9-7.7v-6.3h-13v-3.9h17v10.2c0 6-1.1 10.3-3.4 13-2.1 2.7-5.3 4.1-9.9 4.1-4.5 0-7.7-1.3-9.7-4.1-2.3-2.7-3.4-7.1-3.4-13v-36c0-5.9 1.1-10.2 3.4-12.9 2.1-2.7 5.3-4.1 9.7-4.1s7.7 1.3 9.9 4.1c2.3 2.7 3.4 7 3.4 12.9v5.3h-4.1zm21.8 50.6h30.6v3.9H-104v-83.4h34.5v4.1h-30.6V309zm30.5-68.7h-23.9v25.6h23.9v4.1h-27.8v-33.7h27.8v4zm0 36.3h-23.9v25.7h23.9v4h-27.8v-33.7h27.8v4zm13.9-43.2h-2.4v79.3h-4v-83.4h8.8l20.4 50.5v-50.5h4.1v71.2l-26.9-67.1zm29.7-4.1h4.1v83.4H-31l-20.4-50.5v50.5h-4v-71.2l27 67.1h2.3v-79.3h.1zm33.2 4.3h-22.3v-4.1h47.2v4.1H7.2zm0 79.3H3.1v-72.6h-18.2v-4.1H7.2v76.7zm2.6-76.7h22.3v4.1H13.9v72.6H9.8v-76.7z"/><path class="st2" d="M-404.5 139.6H44.7v459h-449.2v-459z"/><path class="st1" d="M-46 136.3c.1 0 .2 0 .3.1l-11.5 7.9 4.5 12.8-.1.1c-3.8-2.6-7.6-5.3-11.5-8l-11.4 8.1h-.1c1.5-4.3 2.9-8.5 4.5-12.9-3.8-2.6-7.7-5.2-11.6-7.8v-.1h.3l13.6.1c.3 0 .4-.1.5-.3l4.1-12.3c0-.1.1-.2.2-.4.5 1.4.9 2.6 1.4 3.9 1 2.9 2 5.8 2.9 8.8.1.2.2.3.5.3 4.4-.2 8.9-.2 13.4-.3zm-137.1 29.6c-.1-.1-.2-.1-.2-.1-3 0-6 .1-9.1.1-.2 0-.2-.1-.3-.2-.8-2.3-1.6-4.7-2.3-6.9-.2-.5-.3-1-.5-1.4h-.1c0 .1-.1.2-.1.2-.9 2.7-1.8 5.4-2.7 8.2-.1.2-.2.2-.3.2-3 0-6 0-9.1-.1h-.2v.1c2.6 1.7 5.1 3.5 7.8 5.3-1 2.9-2 5.7-3 8.7.2-.1.2-.2.2-.2l7.2-5.1c.2-.1.2-.2.4 0l7.2 5.1c.1.1.2.1.2.2-1.1-2.9-2-5.8-3-8.6 2.8-2 5.3-3.7 7.9-5.5zm159.4-7.1c.8 2.3 1.6 4.7 2.3 6.9.1.2.2.2.3.2 3 0 6-.1 9.1-.1.1 0 .2 0 .2.1-2.6 1.7-5.1 3.5-7.7 5.3l3 8.6-.2-.2-7.2-5.1c-.2-.2-.2-.1-.4 0l-7.2 5.1c-.1.1-.2.1-.2.2 1-2.9 2-5.7 3-8.7-2.6-1.7-5.1-3.5-7.7-5.3v-.1h.2c3 0 6 0 9.1.1.2 0 .3-.1.3-.2l2.7-8.1c0-.1 0-.2.1-.2h.1c-.2.5 0 1 .2 1.5zM12 191.2c-.1.1-.1.1-.1.2-.7 2.1-1.4 4.2-2 6.3-.1.2-.1.2-.2.2H2.6c2 1.4 3.9 2.7 6 4l-2.3 6.6c.1-.1.2-.1.2-.2l5.6-3.9c.2-.1.2-.1.3 0l5.6 3.9c.1 0 .1.1.2.2-.8-2.3-1.6-4.5-2.3-6.6l5.9-4.1h-.2c-2.3 0-4.7.1-6.9.1-.2 0-.2 0-.2-.2-.6-1.8-1.2-3.5-1.8-5.4-.5-.3-.6-.7-.7-1.1zm-241.6.3c-.1.1-.1.1-.1.2-.7 2.1-1.4 4.2-2 6.3-.1.2-.1.2-.2.2h-7.1c2 1.4 3.9 2.7 6 4l-2.3 6.6c.1-.1.2-.1.2-.2l5.6-3.9c.2-.1.2-.1.3 0l5.6 3.9c.1 0 .1.1.2.2-.8-2.3-1.6-4.5-2.3-6.6l5.9-4.1h-.2c-2.3 0-4.7.1-6.9.1-.2 0-.2 0-.2-.2-.6-1.8-1.2-3.5-1.8-5.4-.4-.4-.5-.8-.7-1.1zm247.5 17c-.1-.1-.2-.1-.2-.2m3.6-10.5h.2m-9.9-6.4c.3-.1.3-.1.4-.2.2.4.2.8.4 1.1.6 1.8 1.2 3.5 1.8 5.4m-4.8.2L6 208.5c.8-2.3 1.5-4.5 2.3-6.6m3.5 2.5l-147.3-68c-.2-.1-.2-.1-.3-.1l-13.6.2c-.2 0-.4-.1-.5-.3-1-2.9-2-5.8-2.9-8.8-.5-1.3-.8-2.6-1.4-3.9-.1.2-.1.3-.2.4l-4.1 12.3c-.1.2-.2.3-.5.3-4.5 0-9.1-.1-13.5-.1h-.3v.1l11.5 7.8c-1.5 4.3-2.9 8.6-4.5 12.8h.1l11.4-8.1 11.5 8 .1-.1-4.5-12.8c4.1-2.4 7.9-5.1 11.7-7.7zm-38.5 146.8h52.1v1.3h-52.1v-1.3zm3.3 6.4h52.1v1.3h-52.1v-1.3zm3.7 7h52.1v1.3h-52.1v-1.3zM-247.2 352h52.1v1.3h-52.1V352zm-3.3 6.4h52.1v1.3h-52.1v-1.3zm-3.7 7h52.1v1.3h-52.1v-1.3zm144.5-286l-8 42.3 8.3 15 8-15.1-8.3-42.2zm-9.8 101.6l.2 15.3 9.3-4.8 10 5.4-.1-16.2 19.3 29.2-15.7-9.2.1 4.8 3.1 4.5h-9.2l2.1-4.4-.1-1.8-19.4-.1v2l3.5 4-9.6-.1 2.5-4v-4.5l-14.2 8.8 18.2-28.9zm5.6 29.3h9.6l-2.9-3.7-.1-2.9h-3.8v2.8l-2.8 3.8zm4.5-71.7l-8.5-14.7c-.3-.3 0 65.5 0 70v.2l7.3-3.6v-34.6l-3.5 2.5 1.7-5-4.5-3h5.5c.1 0 .2 0 .2-.2l1.6-4.8c0-.1 0-.1.1-.2.2.5.4 1.1.5 1.5.4 1.1.8 2.3 1.1 3.4 0 .1.1.2.2.2 1.7 0 3.5 0 5.3-.1h.2c-1.5 1.1-2.9 2-4.5 3.1l1.7 5c-1.2-.8-2.5-1.7-3.7-2.6v35l7.5 3.8v-70.2l-8.2 14.3zm23.6 273.6c.1 0 .3 0 .4.1l-14.4 9.9c1.9 5.4 3.8 10.6 5.6 16l-.1.1c-4.8-3.3-9.5-6.6-14.3-10l-14.2 10.1h-.1c1.9-5.4 3.7-10.6 5.5-16.1-4.8-3.3-9.6-6.5-14.5-9.8v-.1h.4l16.9.1c.4 0 .5-.1.6-.4l5.1-15.3c0-.1.1-.3.2-.5.6 1.7 1.1 3.3 1.7 4.9 1.2 3.7 2.4 7.2 3.7 10.9.1.3.2.4.6.4 5.7-.2 11.3-.2 16.9-.3zM-8270 420.5H8113m-8190.5-5.3h35v4.9h-35v-4.9zm-97.9 0h35v4.9h-35v-4.9z"/></svg>